<?xml version="1.0" encoding="utf-8"?>
<!-- Generator: Adobe Illustrator 18.0.0, SVG Export Plug-In . SVG Version: 6.00 Build 0)  -->
<!DOCTYPE svg PUBLIC "-//W3C//DTD SVG 1.1//EN" "http://www.w3.org/Graphics/SVG/1.1/DTD/svg11.dtd">
<svg version="1.1" id="Layer_1" xmlns="http://www.w3.org/2000/svg" xmlns:xlink="http://www.w3.org/1999/xlink" x="0px" y="0px"
	 viewBox="0 0 273.6 273.6" enable-background="new 0 0 273.6 273.6" xml:space="preserve">
<g>
	<path fill="#FFFFFF" d="M119.4,104.3c-4.2,3.2-10.4,3.5-14.3-0.2c-7.6-6.5-16.6-9.7-27-9.7c-11.5,0-21.5,4.2-29.5,12.5
		c-8.3,8.5-12.2,18.5-12.2,30.5s3.9,22.1,12.2,30.5c7.8,8.1,16.8,12,27.5,12.5c9.2,0.5,18.5-2.3,26.1-7.6c6.9-5.1,12-11.5,15.2-19.6
		l0,0H90.1c-6.5,0-11.8-5.3-11.8-11.8v-8.3c0-6.5,5.3-11.8,11.8-11.8h50.8c6.2,0,11.5,5.3,11.5,11.5v4.2c0,20.8-7.2,38.3-21.7,53.1
		C116.2,204.6,98.8,212,78.3,212s-37.8-7.2-52.4-22.1c-14.5-15-21.7-32.3-21.7-53.1s7.2-38.5,21.7-53.1C40.5,69,57.8,61.6,78.3,61.6
		c19.6,0,35.8,6.2,49.4,18.7c5.3,5.1,5.1,13.6-0.7,17.8L119.4,104.3z"/>
	<path fill="#FFFFFF" d="M249.7,129.4c12.9,8.1,19.4,19.4,19.6,34.1c0,12.9-5.5,25.6-15,34.6c-9,8.5-19.8,12.7-32.5,12.7h-37.4
		c-7.8,0-14.1-6.2-14.1-14.1V75.7c0-6.5,5.3-12,12-12h38.3c11.5,0,21.2,3.9,29.5,12.2c8.3,8.3,12.2,18,12.2,29.5
		C262.4,114.4,258,122.3,249.7,129.4z M201.5,115.6c0,2.5,2.1,4.6,4.6,4.6h14.5c2.8,0,5.3-0.9,7.2-3c2.1-2.1,3-5.3,3-9.5
		c0-4.2-0.9-7.2-3-9.2c-2.1-2.3-4.6-3.2-7.2-3.2h-14.5c-2.5,0-4.6,2.1-4.6,4.6V115.6z M221.8,179.7c4.6,0,8.3-1.6,11.5-4.8
		c3.2-3.2,4.8-7.6,4.8-13.4s-1.6-10.4-4.8-13.6s-6.9-4.8-11.5-4.8h-15.7c-2.5,0-4.6,2.1-4.6,4.6v27.2c0,2.5,2.1,4.6,4.6,4.6h15.7
		V179.7z"/>
</g>
</svg>
