<?xml version="1.0" encoding="utf-8"?>
<!-- Generator: Adobe Illustrator 18.0.0, SVG Export Plug-In . SVG Version: 6.00 Build 0)  -->
<!DOCTYPE svg PUBLIC "-//W3C//DTD SVG 1.1//EN" "http://www.w3.org/Graphics/SVG/1.1/DTD/svg11.dtd">
<svg version="1.1" id="Layer_1" xmlns="http://www.w3.org/2000/svg" xmlns:xlink="http://www.w3.org/1999/xlink" x="0px" y="0px"
	 viewBox="0 0 144 144" enable-background="new 0 0 144 144" xml:space="preserve">
<g>
	<path fill="#E95B3B" d="M101,43.8v-6.4h-5.1c-0.2,0-0.4,0.2-0.4,0.4v6l0,0v1c0,0.7-0.6,1.2-1.2,1.2L49.2,46l-0.5-1.1v-1.1h6.5
		c0.7,0,1.2-0.5,1.2-1.2v-3.9c0-0.7-0.6-1.2-1.2-1.2h-17c-0.7,0-1.2,0.5-1.2,1.2v4c0,0.6,0.5,1.2,1.2,1.2h4.3v2
		c0,0.5,0.1,0.9,0.3,1.3l0.6,1.4l-8.2,12.6c-0.1,0.1-0.3,0.2-0.4,0.2c-1.9-0.4-3.8-0.6-5.7-0.6c-7.4,0-13.7,2.6-18.9,7.7
		c-5.2,5.1-7.7,11.4-7.7,18.8c0,7.2,2.5,13.4,7.6,18.6c5.1,5.1,11.2,7.7,18.3,7.7c7.3,0,13.3-2.7,18-8c2.1-2.4,3.6-4.9,4.5-7.6
		c0.1-0.2,0.1-0.5,0.2-0.7h15.4c0.9,0,1.8-0.4,2.4-1.2l29.1-37.2c0.4-0.5,1.2-0.4,1.5,0.2l2,5.1c0.1,0.2,0,0.4-0.2,0.5
		c-1.7,1.1-3.3,2.3-4.8,3.8c-5.3,5.1-7.9,11.3-7.9,18.5c0,8.2,2.9,14.7,8.6,19.8c5.2,4.5,11.1,6.8,17.7,6.8c6.7,0,12.5-2.1,17.4-6.2
		c6.4-5.4,10-13.7,9.4-22.1c-0.4-6.4-3-12-7.7-16.7c-5.2-5.2-11.4-7.8-18.7-7.8c-2.7,0-5.2,0.3-7.6,1c-0.2,0.1-0.4,0-0.5-0.2
		l-5.9-14.7c-0.2-0.6-0.3-1.2-0.3-1.8V43.8L101,43.8z M93.7,53.8L68.8,85.6c-0.4,0.5-1.2,0.4-1.4-0.2L52.9,54.1
		c-0.4-0.8,0.2-1.7,1.1-1.7h39C93.7,52.4,94.1,53.2,93.7,53.8z M31,87.6v4.3c0,0.8,0.7,1.5,1.5,1.5l10.7,0c0.3,0,0.5,0.2,0.4,0.5
		c-0.5,3.4-2.1,6.3-5,8.7c-3,2.5-6.4,3.8-10.2,3.8c-4.4,0-8.6-1.7-12.4-5.1c-4.1-3.7-6.1-8.3-6.1-14c0-5.5,1.8-10.1,5.5-13.7
		C19.1,69.8,23.7,68,29,68c5.5,0,10.2,2.3,14.2,7c0.6,0.7,1.7,0.7,2.4,0.1l3.1-2.9c0.6-0.6,0.6-1.6,0.1-2.2c-2.4-2.6-4.9-4.6-7.3-6
		c-0.2-0.1-0.3-0.4-0.1-0.6l4.6-7c0.3-0.4,0.9-0.4,1.1,0.1l15.3,33c0.3,0.6-0.2,1.3-0.8,1.3l-8.2,0c-0.7,0-1.2-0.6-1.2-1.2
		c0-0.1,0-0.2,0-0.3c0-0.9-0.4-1.8-1.1-2.4l0,0c-0.5-0.5-1.2-0.7-1.9-0.7H32.5C31.7,86.1,31,86.8,31,87.6z M128.4,100.8
		c-3.7,3.7-8.2,5.5-13.5,5.5c-4.9,0-9.3-1.8-13-5.4c-3.8-3.6-5.7-8.2-5.7-13.9c0-5.4,1.8-9.9,5.5-13.5c3.6-3.7,8.1-5.5,13.4-5.5
		c5.3,0,9.8,1.8,13.4,5.5c3.6,3.7,5.4,8.2,5.4,13.6C133.9,92.5,132.1,97.1,128.4,100.8z"/>
	<path fill="#E95B3B" d="M99.4,40.8h-2.3c-0.9,0-1.6-0.7-1.6-1.6v-2.8c0-0.9-0.7-1.6-1.6-1.6H87c-0.9,0-1.6-0.7-1.6-1.6V32
		c0-0.9,0.7-1.6,1.6-1.6h12.3c0.9,0,1.6,0.7,1.6,1.6v7.2C101,40.1,100.2,40.8,99.4,40.8z"/>
</g>
</svg>
